<svg data-v-423bf9ae="" xmlns="http://www.w3.org/2000/svg" viewBox="0 0 223 90" class="iconLeft"><!----><defs data-v-423bf9ae=""><linearGradient data-v-423bf9ae="" gradientTransform="rotate(25)" id="633e7e8c-408d-4fe9-b680-8342a509511c" x1="0%" y1="0%" x2="100%" y2="0%"><stop data-v-423bf9ae="" offset="0%" style="stop-color: rgb(0, 118, 221); stop-opacity: 1;"></stop><stop data-v-423bf9ae="" offset="100%" style="stop-color: rgb(0, 205, 233); stop-opacity: 1;"></stop></linearGradient></defs><!----><g data-v-423bf9ae="" id="57c3b1ab-0c3b-4606-9347-e146ab4622ac" fill="#ffffff" transform="matrix(6.543075190927261,0,0,6.543075190927261,108.88767060270592,-12.742638265614836)"><path d="M3.98 12.62L3.91 13.17L0.21 13.17L0.27 12.67L1.41 12.35L1.41 5.48L0.17 5.19L0.24 4.67L3.96 4.67L3.90 5.19L2.73 5.46L2.73 12.39L3.98 12.62ZM8.46 8.57L8.46 8.57L8.46 8.57Q8.06 8.23 7.70 8.23L7.70 8.23L7.70 8.23Q7.38 8.23 7.05 8.62L7.05 8.62L7.05 8.62Q6.71 9.02 6.61 9.72L6.61 9.72L6.61 12.35L8.19 12.58L8.12 13.17L4.35 13.17L4.43 12.67L5.47 12.39L5.47 8.20L4.36 7.87L4.45 7.35L6.41 7.09L6.54 7.25L6.43 8.83L6.56 8.83L6.56 8.83Q6.82 7.94 7.27 7.46L7.27 7.46L7.27 7.46Q7.71 6.98 8.17 6.98L8.17 6.98L8.17 6.98Q8.53 6.98 8.76 7.21L8.76 7.21L8.76 7.21Q8.99 7.44 8.99 7.75L8.99 7.75L8.99 7.75Q8.98 8.20 8.46 8.57ZM9.34 13.17L9.43 12.63L10.47 12.38L10.47 8.18L9.43 7.80L9.52 7.28L11.44 7.12L11.61 7.29L11.61 12.38L12.70 12.62L12.63 13.17L9.34 13.17ZM10.97 4.24L10.97 4.24L10.97 4.24Q11.31 4.24 11.56 4.47L11.56 4.47L11.56 4.47Q11.81 4.70 11.81 5.02L11.81 5.02L11.81 5.02Q11.81 5.36 11.56 5.61L11.56 5.61L11.56 5.61Q11.31 5.86 10.97 5.86L10.97 5.86L10.97 5.86Q10.64 5.86 10.40 5.61L10.40 5.61L10.40 5.61Q10.17 5.36 10.17 5.01L10.17 5.01L10.17 5.01Q10.17 4.68 10.40 4.46L10.40 4.46L10.40 4.46Q10.64 4.24 10.97 4.24ZM16.16 9.15L16.16 9.15L16.11 8.86L16.11 8.86Q15.86 7.59 15.09 7.59L15.09 7.59L15.09 7.59Q14.74 7.59 14.53 7.83L14.53 7.83L14.53 7.83Q14.32 8.07 14.32 8.41L14.32 8.41L14.32 8.41Q14.32 8.67 14.49 8.90L14.49 8.90L14.49 8.90Q14.65 9.13 14.92 9.30L14.92 9.30L14.92 9.30Q15.18 9.48 15.50 9.66L15.50 9.66L15.50 9.66Q15.82 9.83 16.14 10.03L16.14 10.03L16.14 10.03Q16.46 10.23 16.72 10.45L16.72 10.45L16.72 10.45Q16.99 10.67 17.15 10.99L17.15 10.99L17.15 10.99Q17.32 11.30 17.32 11.67L17.32 11.67L17.32 11.67Q17.32 12.41 16.68 12.91L16.68 12.91L16.68 12.91Q16.04 13.41 15.22 13.41L15.22 13.41L15.22 13.41Q14.33 13.41 13.78 13.05L13.78 13.05L13.78 13.05Q13.23 12.69 13.23 12.21L13.23 12.21L13.23 12.21Q13.23 11.85 13.48 11.60L13.48 11.60L13.48 11.60Q13.73 11.35 14.14 11.31L14.14 11.31L14.14 11.31Q14.35 12.02 14.69 12.38L14.69 12.38L14.69 12.38Q15.03 12.74 15.43 12.74L15.43 12.74L15.43 12.74Q15.83 12.74 16.07 12.56L16.07 12.56L16.07 12.56Q16.32 12.39 16.32 12.04L16.32 12.04L16.32 12.04Q16.32 11.83 16.16 11.63L16.16 11.63L16.16 11.63Q16.00 11.43 15.74 11.27L15.74 11.27L15.74 11.27Q15.48 11.10 15.17 10.94L15.17 10.94L15.17 10.94Q14.86 10.77 14.55 10.57L14.55 10.57L14.55 10.57Q14.23 10.37 13.98 10.15L13.98 10.15L13.98 10.15Q13.72 9.93 13.56 9.60L13.56 9.60L13.56 9.60Q13.39 9.28 13.39 8.91L13.39 8.91L13.39 8.91Q13.39 8.67 13.47 8.41L13.47 8.41L13.47 8.41Q13.55 8.15 13.72 7.90L13.72 7.90L13.72 7.90Q13.88 7.64 14.12 7.45L14.12 7.45L14.12 7.45Q14.36 7.25 14.70 7.13L14.70 7.13L14.70 7.13Q15.04 7.01 15.44 7.01L15.44 7.01L15.44 7.01Q16.15 7.01 16.63 7.31L16.63 7.31L16.63 7.31Q17.11 7.61 17.11 8.16L17.11 8.16L17.11 8.16Q17.11 8.59 16.86 8.85L16.86 8.85L16.86 8.85Q16.60 9.12 16.16 9.15Z"></path></g><!----><g data-v-423bf9ae="" id="239a04f7-c289-48a4-8cf0-5097ee4912cb" transform="matrix(2.8125,0,0,2.8125,0,0)" stroke="none" fill="#ffffff"><path d="M16 1c8.271 0 15 6.729 15 15s-6.729 15-15 15S1 24.271 1 16 7.729 1 16 1m0-1C7.163 0 0 7.163 0 16s7.163 16 16 16 16-7.163 16-16S24.837 0 16 0z"></path><path d="M16 7.045L24.955 16 16 24.955 7.045 16 16 7.045m0-1.414L5.631 16 16 26.369 26.369 16 16 5.631z"></path></g><!----></svg>