<svg fill="none" height="600" viewBox="0 0 1200 600" width="1200" xmlns="http://www.w3.org/2000/svg" xmlns:xlink="http://www.w3.org/1999/xlink"><clipPath id="a"><path d="m0 0h1200v600h-1200z"/></clipPath><g clip-path="url(#a)"><path d="m0 0h1200v600h-1200z" fill="#0423d0"/><path d="m734.567 34.372c-28.692 61.724-23.266 100.422 16.275 116.094 59.313 23.508 200.347 32.911 259.298 83.906 58.95 50.994 238.7 11.572 269.44-75.95s86.09-222.422-205.77-222.422c-194.578 0-307.656 32.79-339.242 98.372z" fill="#fffa72"/><path d="m256.788 156.241c-80.338 172.828-65.145 281.182 45.57 325.064 166.076 65.822 560.971 92.15 726.032 234.936 165.06 142.784 668.36 32.402 754.43-212.66 86.08-245.061 241.05-622.781-576.16-622.781-544.81 0-861.429 91.8118-949.87 275.441z" fill="#0423d0"/><path d="m296.603 146.086c-76.034 163.568-61.655 266.118 43.128 307.649 157.18 62.296 530.92 87.214 687.139 222.351 156.22 135.134 632.55 30.666 714.01-201.268 81.47-231.933 228.14-589.418-545.29-589.418-515.625 0-815.282 86.8934-898.985 260.686z" fill="#0831d3"/><path d="m336.418 135.93c-71.73 154.31-58.166 251.055 40.687 290.235 148.282 58.77 500.867 82.278 648.245 209.765 147.38 127.485 596.74 28.93 673.6-189.875 76.85-218.805 215.22-556.055-514.43-556.055-486.44 0-769.135 81.975-848.1 245.93z" fill="#0d3fd5"/><path d="m376.233 125.774c-67.427 145.052-54.676 235.992 38.246 272.821 139.385 55.244 470.815 77.341 609.351 197.179 138.53 119.836 560.94 27.194 633.18-178.482 72.24-205.677 202.31-522.692-483.56-522.692-457.255 0-722.988 77.0566-797.215 231.174z" fill="#114dd7"/><path d="m416.047 115.619c-63.122 135.792-51.185 220.928 35.805 255.406 130.489 51.718 440.764 72.405 570.458 184.594 129.69 112.186 525.13 25.458 592.76-167.09 67.63-192.549 189.4-489.329-452.69-489.329-428.07 0-676.841 72.1382-746.33 216.419z" fill="#155bd9"/><path d="m455.862 105.462c-58.818 126.535-47.695 205.866 33.364 237.993 121.592 48.191 410.711 67.468 531.564 172.007 120.85 104.538 489.33 23.723 552.35-155.697s176.48-455.9652-421.83-455.9652c-398.884 0-630.694 67.2195-695.446 201.6622z" fill="#1969dc"/><path d="m495.677 95.3067c-54.514 117.2753-44.205 190.8023 30.923 220.5783 112.695 44.666 380.659 62.531 492.67 159.422 112 96.888 453.52 21.986 511.93-144.305 58.41-166.292 163.57-422.6021-390.96-422.6021-369.699 0-584.547 62.301-644.561 186.9068z" fill="#1d77de"/><path d="m535.492 85.151c-50.211 108.017-40.715 175.739 28.481 203.165 103.798 41.139 350.608 57.594 453.777 146.835 103.16 89.24 417.72 20.251 471.51-132.913 53.8-153.163 150.66-389.238-360.1-389.238-340.504 0-538.391 57.3825-593.666 172.151z" fill="#2185e0"/><path d="m575.307 74.9953c-45.907 98.7587-37.225 160.6757 26.04 185.7507 94.901 37.613 320.555 52.657 414.883 134.249 94.32 81.591 381.91 18.516 431.1-121.52 49.18-140.035 137.74-355.8749-329.24-355.8749-311.319 0-492.244 52.464-542.781 157.3952z" fill="#2693e2"/><path d="m615.122 64.8396c-41.603 89.4994-33.736 145.6124 23.599 168.3364 86.004 34.087 290.503 47.721 375.979 121.664 85.48 73.941 346.12 16.779 390.69-110.128s124.83-322.5118-298.37-322.5118c-282.134 0-446.097 47.5455-491.896 142.6394z" fill="#2aa1e5"/><path d="m654.937 54.6834c-37.299 80.2416-30.246 130.5486 21.158 150.9226 77.106 30.56 260.451 42.784 337.085 109.077 76.64 66.293 310.31 15.044 350.27-98.735 39.97-113.778 111.92-289.1482-267.5-289.1482-252.948 0-399.95 42.627-441.012 127.8836z" fill="#2eafe7"/><path d="m694.752 44.5277c-32.996 70.9823-26.756 115.4853 18.716 133.5083 68.21 27.034 230.399 37.847 298.192 96.492 67.79 58.643 274.5 13.307 309.86-87.343 35.35-100.6501 99-255.7851-236.64-255.7851-223.763 0-353.803 37.7085-390.127 113.1278z" fill="#32bde9"/></g></svg>